<?xml version="1.0" encoding="UTF-8"?>
<svg fill="none" viewBox="0 0 138 21" xmlns="http://www.w3.org/2000/svg">
<path d="m8.0887 7.9046c-0.58149-1.1923-0.08635-2.6303 1.106-3.2118l8.6354-4.2118c1.0023-0.48884 2.1781-0.21689 2.8729 0.59046 0.1371 0.15939 0.067 0.39638-0.122 0.48857l-4.073 1.9865c-1.8264 0.89086-2.5849 3.0937-1.6941 4.9202l4.7092 9.6554c0.2305 0.4726 0.0342 1.0426-0.4384 1.2731l-2.1967 1.0715c-1.1923 0.5815-2.6303 0.0864-3.2118-1.1059l-5.5875-11.456zm8.9804-3.2098c-1.1923 0.58153-1.6874 2.0195-1.1059 3.2118l5.5874 11.456c0.5816 1.1923 2.0195 1.6875 3.2118 1.1059l2.1506-1.0489c0.4726-0.2305 0.6689-0.8005 0.4384-1.2731l-4.7212-9.68c-0.8908-1.8265-0.1323-4.0293 1.6942-4.9202l4.1125-2.0059c0.1905-0.0929 0.2599-0.33252 0.1195-0.49127-0.6973-0.7886-1.8597-1.0503-2.8519-0.56634l-8.6354 4.2118zm7.8146 9e-5c-1.1923 0.58153-1.6874 2.0195-1.1059 3.2118l5.5875 11.456c0.5815 1.1923 2.0194 1.6875 3.2117 1.1059l8.6354-4.2118c1.1923-0.5816 1.6874-2.0195 1.1059-3.2118l-5.5874-11.456c-0.5816-1.1923-2.0195-1.6874-3.2118-1.1059l-8.6354 4.2118zm-23.534 5e-5c-1.1923 0.58153-1.6874 2.0195-1.1059 3.2118l5.5875 11.456c0.58149 1.1923 2.0194 1.6874 3.2118 1.1059l2.1754-1.0611c0.4726-0.2305 0.6689-0.8005 0.4384-1.2731l-4.7163-9.67c-0.89083-1.8265-0.13234-4.0293 1.6942-4.9202l4.0904-1.995c0.1899-0.09261 0.2596-0.33114 0.1205-0.49016-0.6963-0.79624-1.8641-1.0621-2.8604-0.57616l-8.6354 4.2118z" clip-rule="evenodd" fill="#1E5DFF" fill-rule="evenodd"/>
<path d="m97.996 3.1718c-0.482-1.1863-1.8155-2.0541-3.195-2.0541-1.912 0-3.5215 1.3973-3.5215 3.3911 0 1.9315 1.5473 3.4535 3.4949 3.4535 2.2144 0 3.5127-1.7357 3.5127-3.5069v-0.01805l-2e-4 -0.01365c-0.0072-0.19016-0.1636-0.34213-0.3555-0.34213h-3.2014l-0.0137 2.6e-4c-0.1901 0.00717-0.3421 0.1636-0.3421 0.35552v0.63243l3e-4 0.01364c0.0071 0.19017 0.1636 0.34213 0.3555 0.34213h1.6096l-0.0075 0.02404c-0.2111 0.6615-0.7934 1.0352-1.5666 1.0352-1.1116 0-1.8053-0.88114-1.8053-1.9759 0-1.0592 0.7381-1.9136 1.7964-1.9136 0.543 0 0.9939 0.23039 1.3075 0.64026 0.0123 0.01612 0.0264 0.03579 0.0423 0.05899 0.0662 0.09711 0.1762 0.15521 0.2938 0.15521h1.4449l0.0108-3.3e-4c0.0929-0.00558 0.1666-0.08274 0.1666-0.1771 0-0.01763-0.0027-0.03514-0.0078-0.05195l-0.0043-0.01247-0.0144-0.03604zm4.7105-1.7782c-0.347-0.17802-0.729-0.27592-1.165-0.27592-1.209 0-2.2941 0.81883-2.2941 1.9403 0 0.85453 0.4891 1.4241 1.5651 1.8603 0.042 0.01697 0.085 0.03389 0.128 0.05087l0.043 0.01701 0.044 0.01707 0.043 0.01716 0.044 0.01727 0.043 0.01741 0.022 0.00876 0.043 0.01766 0.044 0.01841c0.459 0.19143 0.871 0.42025 0.871 0.81527 0 0.356-0.284 0.63192-0.631 0.63192-0.383 0-0.639-0.29806-0.686-0.76461l-2e-3 -0.0227-1e-3 -0.00985c-0.01-0.0583-0.061-0.10183-0.121-0.10183h-1.4134l-0.0098 3.3e-4c-0.0708 0.0048-0.1275 0.06145-0.1323 0.13233l-3e-4 0.00975 3e-4 0.04226c0.0186 1.3878 0.9565 2.1206 2.3745 2.1206 1.423 0 2.294-0.74764 2.294-2.0204 0-0.86336-0.365-1.3885-1.814-2.0116-0.72-0.3115-1.076-0.48951-1.076-0.88114 0-0.29372 0.267-0.51624 0.578-0.51624 0.29 0 0.476 0.13153 0.565 0.48616l5e-3 0.02112 3e-3 0.01052c0.022 0.07263 0.089 0.12305 0.166 0.12305h1.369l0.01-3.4e-4c0.076-0.00514 0.136-0.06844 0.136-0.14577v-0.00421-0.00421l-3e-3 -0.03269c-0.052-0.76969-0.39-1.2457-1.042-1.584zm-16.703 0.00517c-0.066-0.09758-0.1763-0.15649-0.2948-0.15649l-0.8949-1e-5 -0.0137 2.6e-4c-0.1901 0.00717-0.3421 0.1636-0.3421 0.35552v5.8749l3e-4 0.01365c0.0071 0.19016 0.1636 0.34213 0.3555 0.34213h0.8941l0.0136-2.6e-4c0.1902-0.00717 0.3422-0.1636 0.3422-0.35552v-0.00393l-0.0405-3.6634 2.421 3.8565 0.0088 0.01329c0.0662 0.09574 0.1754 0.15332 0.2925 0.15332h0.906l0.0136-2.5e-4c0.1902-0.00717 0.3422-0.1636 0.3422-0.35552v-5.8749l-3e-4 -0.01365c-0.0072-0.19017-0.1636-0.34213-0.3555-0.34213h-0.8919l-0.0137 2.6e-4c-0.1902 0.00717-0.3421 0.16359-0.3421 0.35551v0.00608l0.065 3.8036-2.457-3.9961-0.0083-0.01295zm-32.654 0.18564c-0.0072-0.19016-0.1636-0.34213-0.3556-0.34213h-3.557l-0.0136 2.6e-4c-0.1902 0.00717-0.3422 0.1636-0.3422 0.35552v0.76598l3e-4 0.01365c0.0072 0.19017 0.1636 0.34213 0.3555 0.34213h0.9426v4.7532l3e-4 0.01365c0.0071 0.19016 0.1636 0.34213 0.3555 0.34213h0.9692l0.0136-2.6e-4c0.1902-0.00717 0.3422-0.1636 0.3422-0.35552v-4.7532h0.9336l0.0137-2.5e-4c0.1902-0.00717 0.3421-0.1636 0.3421-0.35552v-0.76599l-2e-4 -0.01365zm2.7124 0c-0.0072-0.19016-0.1636-0.34213-0.3555-0.34213h-0.9692l-0.0137 2.6e-4c-0.1902 0.00717-0.3421 0.1636-0.3421 0.35552v5.8749l2e-4 0.01365c0.0072 0.19016 0.1636 0.34213 0.3556 0.34213h0.9692l0.0136-2.6e-4c0.1902-0.00717 0.3421-0.1636 0.3421-0.35552v-2.2788h2.1521v2.2788l3e-4 0.01365c0.0072 0.19017 0.1636 0.34213 0.3555 0.34213h0.9692l0.0137-2.6e-4c0.1901-0.00717 0.3421-0.16359 0.3421-0.35551v-5.8749l-3e-4 -0.01364c-0.0071-0.19017-0.1636-0.34214-0.3555-0.34214h-0.9692l-0.0136 2.6e-4c-0.1902 0.00717-0.3422 0.1636-0.3422 0.35552v2.1186h-2.1521v-2.1186l-2e-4 -0.01365zm9.0351 0c-0.0072-0.19016-0.1636-0.34213-0.3555-0.34213l-2.9435 1.5e-4 -0.0137 2.5e-4c-0.1901 0.00717-0.3421 0.1636-0.3421 0.35552v5.8749l3e-4 0.01365c0.0071 0.19017 0.1636 0.34213 0.3555 0.34213h2.9434l0.0137-2.6e-4c0.1902-0.00717 0.3421-0.16359 0.3421-0.35551v-0.76599l-2e-4 -0.01365c-0.0072-0.19017-0.1636-0.34213-0.3555-0.34213h-1.6897v-1.1304h1.6274l0.0137-2.5e-4c0.1901-0.00717 0.3421-0.1636 0.3421-0.35552v-0.76599l-3e-4 -0.01364c-0.0071-0.19017-0.1636-0.34214-0.3555-0.34214h-1.6274v-1.0236h1.6897l0.0136-2.5e-4c0.1902-0.00717 0.3421-0.1636 0.3421-0.35552v-0.76599l-2e-4 -0.01365zm8.0395 0c-0.0072-0.19016-0.1636-0.34213-0.3556-0.34213h-3.557l-0.0136 2.6e-4c-0.1902 0.00717-0.3422 0.1636-0.3422 0.35552v0.76598l3e-4 0.01365c0.0071 0.19017 0.1636 0.34213 0.3555 0.34213h0.9426v4.7532l2e-4 0.01365c0.0072 0.19016 0.1636 0.34213 0.3556 0.34213h0.9692l0.0136-2.6e-4c0.1902-0.00717 0.3421-0.1636 0.3421-0.35552v-4.7532h0.9337l0.0137-2.5e-4c0.1901-0.00717 0.3421-0.1636 0.3421-0.35552v-0.76599l-2e-4 -0.01365zm2.7124 0c-0.0072-0.19016-0.1636-0.34213-0.3556-0.34213h-0.9692l-0.0136 2.6e-4c-0.1902 0.00717-0.3421 0.1636-0.3421 0.35552v5.8749l2e-4 0.01365c0.0072 0.19016 0.1636 0.34213 0.3555 0.34213h0.9692l0.0137-2.6e-4c0.1902-0.00717 0.3421-0.1636 0.3421-0.35552v-2.2788h2.1521v2.2788l3e-4 0.01365c0.0072 0.19017 0.1636 0.34213 0.3555 0.34213h0.9692l0.0136-2.6e-4c0.1902-0.00717 0.3422-0.16359 0.3422-0.35551v-5.8749l-3e-4 -0.01364c-0.0071-0.19017-0.1636-0.34214-0.3555-0.34214h-0.9692l-0.0136 2.6e-4c-0.1902 0.00717-0.3422 0.1636-0.3422 0.35552v2.1186h-2.1521v-2.1186l-2e-4 -0.01365zm7.0614 0c-0.0072-0.19016-0.1636-0.34213-0.3556-0.34213h-0.9692l-0.0136 2.6e-4c-0.1902 0.00717-0.3421 0.1636-0.3421 0.35552v5.8749l2e-4 0.01365c0.0072 0.19016 0.1636 0.34213 0.3555 0.34213h0.9692l0.0137-2.6e-4c0.1901-0.00717 0.3421-0.1636 0.3421-0.35552v-5.8749l-2e-4 -0.01365zm28.31-0.18635c-0.347-0.17801-0.729-0.27592-1.165-0.27592-1.21 0-2.295 0.81888-2.295 1.9403 0 0.85453 0.49 1.4241 1.566 1.8603 0.057 0.02295 0.115 0.04583 0.173 0.06888l0.041 0.01606 0.044 0.01716c0.036 0.01434 0.072 0.0288 0.108 0.04344l0.044 0.01766c0.475 0.19524 0.915 0.42592 0.915 0.83368 0 0.356-0.285 0.63192-0.632 0.63192-0.382 0-0.638-0.29806-0.686-0.76461l-2e-3 -0.0227c-5e-3 -0.06318-0.058-0.11168-0.121-0.11168h-1.414c-0.075 0-0.137 0.05855-0.142 0.13266v0.00975c0 1.4152 0.942 2.1628 2.374 2.1628 1.423 0 2.295-0.74764 2.295-2.0204 0-0.86336-0.365-1.3885-1.815-2.0116-0.72-0.31149-1.076-0.48951-1.076-0.88114 0-0.29372 0.267-0.51624 0.578-0.51624 0.291 0 0.477 0.13154 0.566 0.48616l5e-3 0.02112c0.018 0.07824 0.088 0.13358 0.168 0.13357h1.369c0.081 1e-5 0.146-0.0654 0.146-0.1461v-0.00421-0.0042c-0.045-0.78897-0.384-1.2736-1.044-1.6167zm19.213 0.53402c-0.658-0.56072-1.388-0.80994-2.295-0.80994-1.885 0-3.388 1.5755-3.388 3.32 0 0.99685 0.302 1.8335 1.014 2.5278 0.676 0.66754 1.538 0.98797 2.454 0.98797 1.456 0 2.741-0.88058 3.236-2.2917l0.014-0.04293 4e-3 -0.01089c0.027-0.09826-0.028-0.20158-0.125-0.23447-0.02-0.0067-0.041-0.01012-0.062-0.01012h-1.285l-0.016 3.4e-4c-0.123 0.00533-0.235 0.0742-0.295 0.1826-3e-3 0.00466-5e-3 0.00913-8e-3 0.01342-3e-3 0.00566-6e-3 0.011-9e-3 0.01601-0.351 0.598-0.872 0.90024-1.472 0.90024-1.04 0-1.769-0.89004-1.769-1.9582 0-1.0236 0.711-1.9226 1.761-1.9226 0.6 0 1.153 0.32895 1.472 0.89667 9e-3 0.01563 0.019 0.03397 0.029 0.05502 0.06 0.12042 0.184 0.19648 0.318 0.19648h1.245l0.012-3.2e-4c0.121-0.00635 0.218-0.10669 0.218-0.22955 0-0.01636-2e-3 -0.03265-6e-3 -0.0486l-4e-3 -0.01583-0.01-0.03638c-0.168-0.54458-0.514-1.0396-1.033-1.4851zm-12.942-0.32956c0-0.19649-0.159-0.35577-0.356-0.35577h-3.557c-0.196 0-0.356 0.15928-0.356 0.35577v0.76599c0 0.19649 0.16 0.35577 0.356 0.35577h0.943v4.7532c0 0.19649 0.159 0.35578 0.355 0.35578h0.97c0.196 0 0.355-0.15929 0.355-0.35578v-4.7532h0.934c0.197 0 0.356-0.15928 0.356-0.35577v-0.76599zm4.349-0.13126c-0.054-0.13553-0.185-0.22451-0.331-0.22451l-0.843 1e-5c-0.145 0-0.276 0.08844-0.33 0.22336l-2.356 5.8749c-0.073 0.18237 0.015 0.3895 0.198 0.46263 0.042 0.01688 0.087 0.02556 0.132 0.02556h1.03c0.15 0 0.284-0.09352 0.335-0.23403l0.261-0.71834h2.286l0.239 0.70994c0.048 0.14484 0.184 0.24242 0.337 0.24242h1.043c0.197 0 0.356-0.15929 0.356-0.35578 0-0.04494-9e-3 -0.08948-0.025-0.13126l-2.332-5.8749zm12.475 0.13126c0-0.19649-0.159-0.35577-0.356-0.35577h-0.969c-0.196 0-0.356 0.15928-0.356 0.35578v5.8749c0 0.19649 0.16 0.35577 0.356 0.35577h0.969c0.197 0 0.356-0.15928 0.356-0.35577v-2.4747c0-0.00842 6e-3 -0.01547 0.014-0.01732l4e-3 -4.7e-4 1.692 2.6822c0.065 0.10331 0.178 0.16598 0.301 0.16598h1.084c0.196 0 0.355-0.15928 0.355-0.35577 0-0.07323-0.022-0.14468-0.064-0.20459l-1.927-2.7418 1.812-2.7319c0.108-0.16373 0.064-0.38452-0.1-0.49314-0.058-0.03868-0.127-0.0593-0.197-0.0593h-0.901c-0.122 0-0.236 0.06299-0.301 0.16676l-1.745 2.7821c-5e-3 0.00781-0.013 0.01307-0.022 0.0146l-5e-3 4.7e-4v-2.6082zm-13.916 3.9433 0.676-2.2519 0.027 0.00889 0.676 2.243h-1.379z" clip-rule="evenodd" fill="#000" fill-rule="evenodd"/>
<path d="m53.541 14.755c-0.2528 0-0.4452-0.2097-0.5883-0.4182-0.0453-0.066-0.101-0.1245-0.1672-0.1756-0.1806-0.1435-0.4387-0.2153-0.7743-0.2153-0.2223 0-0.4075 0.0289-0.5556 0.0868-0.1482 0.0579-0.2593 0.1378-0.3334 0.2396-0.074 0.0996-0.1122 0.2141-0.1146 0.3438-0.0046 0.1065 0.0162 0.2002 0.0625 0.2812 0.0487 0.0811 0.1181 0.1528 0.2084 0.2153 0.0926 0.0602 0.2037 0.1135 0.3333 0.1598 0.1297 0.0463 0.2755 0.0868 0.4376 0.1215l0.6111 0.1389c0.3519 0.0764 0.6621 0.1783 0.9306 0.3056 0.2709 0.1273 0.4977 0.2789 0.6806 0.4549 0.1852 0.1759 0.3252 0.3785 0.4202 0.6076 0.0949 0.2292 0.1435 0.4862 0.1458 0.7709-0.0023 0.4491-0.1157 0.8345-0.3403 1.1563-0.2245 0.3218-0.5475 0.5683-0.9688 0.7396-0.419 0.1714-0.9248 0.257-1.5174 0.257-0.595 0-1.1135-0.0891-1.5557-0.2674-0.4421-0.1782-0.7859-0.4491-1.0313-0.8125-0.1687-0.2499-0.281-0.5451-0.337-0.8857-0.0442-0.2688 0.1812-0.4929 0.4536-0.4929h0.6907c0.2585 0 0.4553 0.2117 0.5681 0.4444 0.0221 0.0455 0.0474 0.0884 0.0761 0.1286 0.1088 0.1528 0.2581 0.2685 0.4479 0.3472 0.1922 0.0787 0.4144 0.1181 0.6667 0.1181 0.2315 0 0.4283-0.0313 0.5903-0.0938 0.1644-0.0625 0.2906-0.1493 0.3785-0.2604 0.088-0.1111 0.1331-0.2384 0.1355-0.382-0.0024-0.1342-0.044-0.2488-0.1251-0.3437-0.081-0.0973-0.206-0.1806-0.375-0.25-0.1666-0.0718-0.3796-0.1378-0.6389-0.198l-0.7431-0.1736c-0.6158-0.1412-1.1007-0.3692-1.4549-0.6841-0.3542-0.3171-0.5301-0.7454-0.5278-1.2848-0.0023-0.4398 0.1157-0.8252 0.3542-1.1563 0.2384-0.331 0.5683-0.5891 0.9896-0.7743s0.9017-0.2778 1.441-0.2778c0.551 0 1.029 0.0937 1.4341 0.2813 0.4075 0.1852 0.7235 0.4456 0.948 0.7812 0.1375 0.2056 0.2338 0.4312 0.2888 0.6767 0.0595 0.2654-0.1671 0.4901-0.4391 0.4901h-0.7054zm39.578 1.4239c0 0.7824-0.1505 1.4457-0.4515 1.9897-0.3009 0.544-0.7083 0.9572-1.2222 1.2396-0.5116 0.2825-1.0857 0.4237-1.7224 0.4237-0.6389 0-1.2141-0.1424-1.7257-0.4271-0.5116-0.2848-0.9179-0.698-1.2189-1.2397-0.2986-0.544-0.4479-1.2061-0.4479-1.9862 0-0.7825 0.1493-1.4457 0.4479-1.9897 0.301-0.544 0.7073-0.9572 1.2189-1.2397 0.5116-0.2824 1.0868-0.4236 1.7257-0.4236 0.6367 0 1.2108 0.1412 1.7224 0.4236 0.5139 0.2825 0.9213 0.6957 1.2222 1.2397 0.301 0.544 0.4515 1.2072 0.4515 1.9897zm-1.7571 0c0-0.463-0.066-0.8542-0.1979-1.1737-0.1296-0.3194-0.3172-0.5614-0.5625-0.7257-0.2431-0.1644-0.5359-0.2466-0.8786-0.2466-0.3403 0-0.6331 0.0822-0.8785 0.2466-0.2454 0.1643-0.434 0.4063-0.566 0.7257-0.1296 0.3195-0.1944 0.7107-0.1944 1.1737s0.0648 0.8542 0.1944 1.1737c0.132 0.3194 0.3206 0.5613 0.566 0.7257s0.5382 0.2465 0.8785 0.2465c0.3427 0 0.6355-0.0821 0.8786-0.2465 0.2453-0.1644 0.4329-0.4063 0.5625-0.7257 0.1319-0.3195 0.1979-0.7107 0.1979-1.1737zm-11.481 3.5557c-0.2701 0-0.489-0.2189-0.489-0.4889v-6.1337c0-0.27 0.2189-0.4889 0.489-0.4889h2.4765c0.5324 0 0.978 0.0752 1.3368 0.2257 0.3612 0.1505 0.632 0.3611 0.8126 0.632 0.1829 0.2708 0.2743 0.5845 0.2743 0.941 0 0.2709-0.0567 0.5128-0.1701 0.7257-0.1135 0.2107-0.2697 0.3855-0.4688 0.5244s-0.4294 0.2361-0.691 0.2917v0.0694c0.287 0.0139 0.5521 0.0915 0.7952 0.2327 0.2453 0.1412 0.4421 0.3379 0.5903 0.5903 0.1481 0.25 0.2222 0.5463 0.2222 0.8889 0 0.382-0.0972 0.7234-0.2917 1.0244-0.1944 0.2986-0.4757 0.5347-0.8438 0.7083-0.368 0.1714-0.8148 0.257-1.3403 0.257h-2.7022zm1.2299-1.3855h1.0625c0.3727 0 0.6471-0.0706 0.823-0.2118 0.1782-0.1412 0.2674-0.338 0.2674-0.5903 0-0.1829-0.0429-0.3403-0.1285-0.4723-0.0857-0.1342-0.2072-0.2372-0.3646-0.309-0.1574-0.0741-0.3461-0.1111-0.566-0.1111h-1.0938v1.6945zm0-2.8022h0.9514c0.1875 0 0.3542-0.0313 0.5-0.0938 0.1459-0.0625 0.2593-0.1528 0.3403-0.2708 0.0834-0.1181 0.125-0.2605 0.125-0.4271 0-0.2385-0.0845-0.426-0.2534-0.5626-0.169-0.1365-0.3971-0.2048-0.6841-0.2048h-0.9792v1.5591zm-8.894 4.1877h2.1397c0.7222 0 1.3461-0.1412 1.8716-0.4236 0.5255-0.2848 0.9295-0.6934 1.2119-1.2258 0.2847-0.5324 0.4271-1.169 0.4271-1.9098 0-0.7385-0.1424-1.3728-0.4271-1.9029-0.2848-0.5324-0.6899-0.9399-1.2154-1.2223-0.5231-0.2847-1.147-0.4271-1.8716-0.4271h-2.1362c-0.27 0-0.4889 0.2189-0.4889 0.4889v6.1337c0 0.27 0.2189 0.4889 0.4889 0.4889zm2.0737-1.4654h-0.8438v-4.1807h0.8195c0.4074 0 0.75 0.0683 1.0278 0.2048 0.2801 0.1343 0.492 0.3542 0.6355 0.6598 0.1435 0.3033 0.2153 0.7107 0.2153 1.2223s-0.0718 0.9213-0.2153 1.2292c-0.1412 0.3056-0.3507 0.5267-0.6285 0.6632-0.2755 0.1343-0.6123 0.2014-1.0105 0.2014zm-4.6538-5.6461c0.27 0 0.4889 0.2189 0.4889 0.4889v6.1337c0 0.27-0.2189 0.4889-0.4889 0.4889h-0.7128c-0.1607 0-0.3112-0.079-0.4025-0.2114l-2.6842-3.893h-0.0452v3.6155c0 0.27-0.2189 0.4889-0.4889 0.4889h-0.741c-0.27 0-0.4889-0.2189-0.4889-0.4889v-6.1337c0-0.27 0.2189-0.4889 0.4889-0.4889h0.7322c0.1615 0 0.3126 0.0798 0.4037 0.2132l2.6532 3.8843h0.059v-3.6086c0-0.27 0.2189-0.4889 0.4889-0.4889h0.7376zm-12.45 7.1115c0.2137 0 0.4027-0.1388 0.4666-0.3427l0.3604-1.1504h2.4559l0.3613 1.1506c0.064 0.2038 0.2529 0.3425 0.4665 0.3425h0.8074c0.3345 0 0.5702-0.3283 0.4632-0.6452l-2.0695-6.1337c-0.067-0.1988-0.2534-0.3326-0.4632-0.3326h-1.5863c-0.2098 0-0.3962 0.1338-0.4632 0.3326l-2.0695 6.1337c-0.107 0.3169 0.1288 0.6452 0.4632 0.6452h0.8072zm2.0815-5.3197 0.7915 2.5209h-1.6369l0.7898-2.5209h0.0556zm36.53-1.5476c-0.0873-0.1511-0.2487-0.2442-0.4232-0.2442h-0.7887c-0.3807 0-0.6154 0.416-0.4184 0.7418l1.701 2.814-1.742 2.8091c-0.202 0.3257 0.0322 0.7466 0.4155 0.7466h0.8c0.1734 0 0.3339-0.0918 0.4217-0.2414l1.1916-2.0296h0.0556l1.1917 2.0296c0.0878 0.1496 0.2482 0.2414 0.4216 0.2414h0.8118c0.3837 0 0.6174-0.4218 0.4149-0.7474l-1.7497-2.8083 1.6984-2.8143c0.1967-0.3258-0.0379-0.7415-0.4185-0.7415h-0.777c-0.1738 0-0.3345 0.0922-0.4222 0.2423l-1.171 2.0044h-0.0556l-1.1575-2.0025z" clip-rule="evenodd" fill="url(#a)" fill-rule="evenodd"/>
<defs>
<linearGradient id="a" x1="49.11" x2="100.02" y1="16.273" y2="16.273" gradientUnits="userSpaceOnUse">
<stop stop-color="#F304FF" offset="0"/>
<stop stop-color="#1E5BFF" offset="1"/>
</linearGradient>
</defs>
</svg>
