<svg width="47" height="23" viewBox="0 0 47 23" fill="none" xmlns="http://www.w3.org/2000/svg">
<path fill-rule="evenodd" clip-rule="evenodd" d="M8.80556 8.34825C8.17242 7.05006 8.71153 5.48437 10.0097 4.85119L19.4121 0.265278C20.5033 -0.266978 21.7836 0.0291294 22.5401 0.908171C22.6894 1.08172 22.6131 1.33976 22.4073 1.44013L17.9726 3.6031C15.9839 4.57307 15.1581 6.97154 16.128 8.96028L21.2554 19.4733C21.5064 19.9878 21.2927 20.6084 20.7781 20.8594L18.3863 22.026C17.0881 22.6592 15.5224 22.1201 14.8893 20.8219L8.80556 8.34825ZM27.0935 4.85332C25.7953 5.4865 25.2562 7.05219 25.8894 8.35037L31.9731 20.824C32.6062 22.1222 34.1719 22.6613 35.47 22.0282L44.8724 17.4422C46.1706 16.809 46.7097 15.2434 46.0765 13.9452L39.9929 1.47151C39.3597 0.173325 37.794 -0.365766 36.4959 0.26741L27.0935 4.85332ZM18.5846 4.85332C17.2865 5.4865 16.7474 7.05219 17.3805 8.35037L23.4642 20.824C24.0974 22.1222 25.663 22.6613 26.9612 22.0282L29.3028 20.8861C29.8174 20.6351 30.031 20.0145 29.7801 19.4999L24.6396 8.96012C23.6697 6.97143 24.4955 4.57293 26.4843 3.60295L30.9621 1.41894C31.1695 1.31779 31.245 1.0569 31.0921 0.884041C30.3329 0.0254061 29.0673 -0.259512 27.987 0.26741L18.5846 4.85332ZM1.4694 4.85329C0.171218 5.48647 -0.367892 7.05216 0.265261 8.35034L6.34898 20.824C6.98212 22.1222 8.54777 22.6613 9.84597 22.0281L12.2147 20.8728C12.7292 20.6218 12.9429 20.0012 12.6919 19.4867L7.55679 8.95782C6.58684 6.96913 7.41269 4.57062 9.40141 3.60064L13.8551 1.4284C14.0618 1.32757 14.1377 1.06786 13.9863 0.894709C13.2281 0.0277505 11.9565 -0.261722 10.8717 0.267382L1.4694 4.85329Z" fill="black"/>
</svg>
